<mxfile host="app.diagrams.net" modified="2023-12-08T17:50:58.623Z" agent="Mozilla/5.0 (Windows NT 10.0; Win64; x64) AppleWebKit/537.36 (KHTML, like Gecko) Chrome/119.0.0.0 Safari/537.36 Edg/119.0.0.0" etag="QEgtQ424Till0qwEruLk" version="22.1.7" type="device">
  <diagram name="Page-1" id="ff44883e-f642-bcb2-894b-16b3d25a3f0b">
    <mxGraphModel dx="2100" dy="1162" grid="1" gridSize="10" guides="1" tooltips="1" connect="1" arrows="1" fold="1" page="1" pageScale="1.5" pageWidth="1169" pageHeight="826" background="none" math="0" shadow="0">
      <root>
        <mxCell id="0" style=";html=1;" />
        <mxCell id="1" style=";html=1;" parent="0" />
        <mxCell id="f0bcc99304e6f5a-1" value="1" style="ellipse;whiteSpace=wrap;html=1;rounded=0;shadow=1;strokeColor=#666666;strokeWidth=4;fontSize=30;align=center;fillColor=#f5f5f5;" parent="1" vertex="1">
          <mxGeometry x="10" y="550" width="80" height="80" as="geometry" />
        </mxCell>
        <mxCell id="f0bcc99304e6f5a-10" style="edgeStyle=none;curved=1;html=1;startSize=10;endFill=1;endSize=10;strokeWidth=2;fontSize=12;" parent="1" target="f0bcc99304e6f5a-6" edge="1">
          <mxGeometry relative="1" as="geometry">
            <mxPoint x="485.886827041616" y="367.6673610051032" as="sourcePoint" />
          </mxGeometry>
        </mxCell>
        <mxCell id="f0bcc99304e6f5a-20" value="t=3 mo" style="text;html=1;resizable=0;points=[];align=center;verticalAlign=middle;labelBackgroundColor=#ffffff;fontSize=20;" parent="f0bcc99304e6f5a-10" vertex="1" connectable="0">
          <mxGeometry x="0.1545" relative="1" as="geometry">
            <mxPoint x="3" y="-20" as="offset" />
          </mxGeometry>
        </mxCell>
        <mxCell id="f0bcc99304e6f5a-11" style="edgeStyle=none;curved=1;html=1;startSize=10;endFill=1;endSize=10;strokeWidth=2;fontSize=12;" parent="1" target="f0bcc99304e6f5a-5" edge="1">
          <mxGeometry relative="1" as="geometry">
            <mxPoint x="489.7201307133787" y="345.27652499624696" as="sourcePoint" />
          </mxGeometry>
        </mxCell>
        <mxCell id="f0bcc99304e6f5a-24" value="t=3mo" style="text;html=1;resizable=0;points=[];align=center;verticalAlign=middle;labelBackgroundColor=#ffffff;fontSize=20;" parent="f0bcc99304e6f5a-11" vertex="1" connectable="0">
          <mxGeometry x="0.1672" y="-3" relative="1" as="geometry">
            <mxPoint x="-51" y="4" as="offset" />
          </mxGeometry>
        </mxCell>
        <mxCell id="f0bcc99304e6f5a-17" style="edgeStyle=none;curved=1;html=1;startSize=10;endFill=1;endSize=10;strokeWidth=2;fontSize=12;exitX=0.75;exitY=0;exitDx=0;exitDy=0;" parent="1" source="f0bcc99304e6f5a-29" target="f0bcc99304e6f5a-4" edge="1">
          <mxGeometry relative="1" as="geometry">
            <mxPoint x="744.1710543648205" y="869.207235787444" as="sourcePoint" />
          </mxGeometry>
        </mxCell>
        <mxCell id="f0bcc99304e6f5a-27" value="t=4 mo" style="text;html=1;resizable=0;points=[];align=center;verticalAlign=middle;labelBackgroundColor=#ffffff;fontSize=20;" parent="f0bcc99304e6f5a-17" vertex="1" connectable="0">
          <mxGeometry x="-0.1324" y="-6" relative="1" as="geometry">
            <mxPoint x="-17" y="-31" as="offset" />
          </mxGeometry>
        </mxCell>
        <mxCell id="f0bcc99304e6f5a-15" style="edgeStyle=none;curved=1;html=1;startSize=10;endFill=1;endSize=10;strokeWidth=2;fontSize=12;" parent="1" source="f0bcc99304e6f5a-4" target="f0bcc99304e6f5a-8" edge="1">
          <mxGeometry relative="1" as="geometry" />
        </mxCell>
        <mxCell id="f0bcc99304e6f5a-23" value="t=3 mo" style="text;html=1;resizable=0;points=[];align=center;verticalAlign=middle;labelBackgroundColor=#ffffff;fontSize=20;" parent="f0bcc99304e6f5a-15" vertex="1" connectable="0">
          <mxGeometry x="-0.4143" y="-1" relative="1" as="geometry">
            <mxPoint x="18" y="-21" as="offset" />
          </mxGeometry>
        </mxCell>
        <mxCell id="f0bcc99304e6f5a-4" value="50" style="ellipse;whiteSpace=wrap;html=1;rounded=0;shadow=1;strokeColor=#666666;strokeWidth=1;fontSize=30;align=center;fillColor=#f5f5f5;" parent="1" vertex="1">
          <mxGeometry x="1130" y="570" width="80" height="80" as="geometry" />
        </mxCell>
        <mxCell id="f0bcc99304e6f5a-12" style="edgeStyle=none;curved=1;html=1;startSize=10;endFill=1;endSize=10;strokeWidth=2;fontSize=12;" parent="1" source="f0bcc99304e6f5a-5" target="f0bcc99304e6f5a-7" edge="1">
          <mxGeometry relative="1" as="geometry" />
        </mxCell>
        <mxCell id="f0bcc99304e6f5a-25" value="t=1mo" style="text;html=1;resizable=0;points=[];align=center;verticalAlign=middle;labelBackgroundColor=#ffffff;fontSize=20;" parent="f0bcc99304e6f5a-12" vertex="1" connectable="0">
          <mxGeometry x="-0.0727" y="-5" relative="1" as="geometry">
            <mxPoint x="18" y="-25" as="offset" />
          </mxGeometry>
        </mxCell>
        <mxCell id="f0bcc99304e6f5a-5" value="60" style="ellipse;whiteSpace=wrap;html=1;rounded=0;shadow=1;strokeColor=#666666;strokeWidth=1;fontSize=30;align=center;fillColor=#f5f5f5;" parent="1" vertex="1">
          <mxGeometry x="820" y="260" width="80" height="80" as="geometry" />
        </mxCell>
        <mxCell id="f0bcc99304e6f5a-13" style="edgeStyle=none;curved=1;html=1;startSize=10;endFill=1;endSize=10;strokeWidth=2;fontSize=12;" parent="1" source="f0bcc99304e6f5a-7" target="f0bcc99304e6f5a-8" edge="1">
          <mxGeometry relative="1" as="geometry" />
        </mxCell>
        <mxCell id="f0bcc99304e6f5a-26" value="t=4 mo" style="text;html=1;resizable=0;points=[];align=center;verticalAlign=middle;labelBackgroundColor=#ffffff;fontSize=20;" parent="f0bcc99304e6f5a-13" vertex="1" connectable="0">
          <mxGeometry x="-0.2658" y="2" relative="1" as="geometry">
            <mxPoint x="45" y="1" as="offset" />
          </mxGeometry>
        </mxCell>
        <mxCell id="f0bcc99304e6f5a-7" value="70" style="ellipse;whiteSpace=wrap;html=1;rounded=0;shadow=1;strokeColor=#666666;strokeWidth=1;fontSize=30;align=center;fillColor=#f5f5f5;" parent="1" vertex="1">
          <mxGeometry x="1120" y="260" width="80" height="80" as="geometry" />
        </mxCell>
        <mxCell id="f0bcc99304e6f5a-8" value="80" style="ellipse;whiteSpace=wrap;html=1;rounded=0;shadow=1;strokeColor=#666666;strokeWidth=4;fontSize=30;align=center;fillColor=#f5f5f5;" parent="1" vertex="1">
          <mxGeometry x="1490" y="570" width="80" height="80" as="geometry" />
        </mxCell>
        <mxCell id="f0bcc99304e6f5a-28" value="A" style="text;html=1;strokeColor=none;fillColor=none;align=center;verticalAlign=middle;whiteSpace=wrap;rounded=0;shadow=1;labelBackgroundColor=none;fontSize=20;" parent="1" vertex="1">
          <mxGeometry x="430" y="770" width="40" height="20" as="geometry" />
        </mxCell>
        <mxCell id="f0bcc99304e6f5a-29" value="B" style="text;html=1;strokeColor=none;fillColor=none;align=center;verticalAlign=middle;whiteSpace=wrap;rounded=0;shadow=1;labelBackgroundColor=none;fontSize=20;" parent="1" vertex="1">
          <mxGeometry x="350" y="620" width="40" height="20" as="geometry" />
        </mxCell>
        <mxCell id="f0bcc99304e6f5a-30" value="C" style="text;html=1;strokeColor=none;fillColor=none;align=center;verticalAlign=middle;whiteSpace=wrap;rounded=0;shadow=1;labelBackgroundColor=none;fontSize=20;" parent="1" vertex="1">
          <mxGeometry x="640" y="620" width="40" height="20" as="geometry" />
        </mxCell>
        <mxCell id="f0bcc99304e6f5a-31" value="D" style="text;html=1;strokeColor=none;fillColor=none;align=center;verticalAlign=middle;whiteSpace=wrap;rounded=0;shadow=1;labelBackgroundColor=none;fontSize=20;" parent="1" vertex="1">
          <mxGeometry x="700" y="440" width="40" height="20" as="geometry" />
        </mxCell>
        <mxCell id="f0bcc99304e6f5a-32" value="E" style="text;html=1;strokeColor=none;fillColor=none;align=center;verticalAlign=middle;whiteSpace=wrap;rounded=0;shadow=1;labelBackgroundColor=none;fontSize=20;" parent="1" vertex="1">
          <mxGeometry x="930" y="770" width="40" height="20" as="geometry" />
        </mxCell>
        <mxCell id="f0bcc99304e6f5a-33" value="F" style="text;html=1;strokeColor=none;fillColor=none;align=center;verticalAlign=middle;whiteSpace=wrap;rounded=0;shadow=1;labelBackgroundColor=none;fontSize=20;" parent="1" vertex="1">
          <mxGeometry x="940" y="620" width="40" height="20" as="geometry" />
        </mxCell>
        <mxCell id="f0bcc99304e6f5a-34" value="G" style="text;html=1;strokeColor=none;fillColor=none;align=center;verticalAlign=middle;whiteSpace=wrap;rounded=0;shadow=1;labelBackgroundColor=none;fontSize=20;" parent="1" vertex="1">
          <mxGeometry x="990" y="310" width="40" height="20" as="geometry" />
        </mxCell>
        <mxCell id="f0bcc99304e6f5a-35" value="H" style="text;html=1;strokeColor=none;fillColor=none;align=center;verticalAlign=middle;whiteSpace=wrap;rounded=0;shadow=1;labelBackgroundColor=none;fontSize=20;" parent="1" vertex="1">
          <mxGeometry x="1280" y="440" width="40" height="20" as="geometry" />
        </mxCell>
        <mxCell id="f0bcc99304e6f5a-36" value="I" style="text;html=1;strokeColor=none;fillColor=none;align=center;verticalAlign=middle;whiteSpace=wrap;rounded=0;shadow=1;labelBackgroundColor=none;fontSize=20;" parent="1" vertex="1">
          <mxGeometry x="1310" y="620" width="40" height="20" as="geometry" />
        </mxCell>
        <mxCell id="0Ta8M4OtkD5TvIHd46f4-1" value="" style="edgeStyle=none;curved=1;html=1;startSize=10;endArrow=classic;endFill=1;endSize=10;strokeColor=#000000;strokeWidth=2;fontSize=12;" edge="1" parent="1" source="f0bcc99304e6f5a-1" target="f0bcc99304e6f5a-6">
          <mxGeometry relative="1" as="geometry">
            <mxPoint x="90" y="589" as="sourcePoint" />
            <mxPoint x="830" y="580" as="targetPoint" />
          </mxGeometry>
        </mxCell>
        <mxCell id="f0bcc99304e6f5a-6" value="2" style="ellipse;whiteSpace=wrap;html=1;rounded=0;shadow=1;strokeColor=#666666;strokeWidth=1;fontSize=30;align=center;fillColor=#f5f5f5;" parent="1" vertex="1">
          <mxGeometry x="190" y="540" width="80" height="80" as="geometry" />
        </mxCell>
        <mxCell id="0Ta8M4OtkD5TvIHd46f4-3" value="" style="ellipse;whiteSpace=wrap;html=1;aspect=fixed;" vertex="1" parent="1">
          <mxGeometry x="470" y="460" width="80" height="80" as="geometry" />
        </mxCell>
      </root>
    </mxGraphModel>
  </diagram>
</mxfile>
